<svg height="512" viewBox="0 0 64 64" width="512" xmlns="http://www.w3.org/2000/svg"><g id="flat"><path d="m50.609 13h10.391v34h-4v-13z" fill="#aabece"/><path d="m13.391 13h-10.391v34h4v-13z" fill="#aabece"/><path d="m61 7v-4h-58v4h11v4l-7 23v13h11v-36-4h12v40h4v-40h12v4 36h11v-13l-7-23v-4z" fill="#7d8d9c"/><path d="m5 7h2v6h-2z" fill="#d3843d"/><path d="m9 7h2v6h-2z" fill="#d3843d"/><path d="m53 7h2v6h-2z" fill="#d3843d"/><path d="m57 7h2v6h-2z" fill="#d3843d"/><path d="m22 11h4a4 4 0 0 1 4 4v32a0 0 0 0 1 0 0h-12a0 0 0 0 1 0 0v-32a4 4 0 0 1 4-4z" fill="#87cee9"/><path d="m38 11h4a4 4 0 0 1 4 4v32a0 0 0 0 1 0 0h-12a0 0 0 0 1 0 0v-32a4 4 0 0 1 4-4z" fill="#87cee9"/><g fill="#f4f4e6"><path d="m21 15h2v4h-2z"/><path d="m41 14h2v4h-2z"/><path d="m37 16h2v4h-2z"/><path d="m40 21h2v4h-2z"/><path d="m37 26h2v4h-2z"/><path d="m40 32h2v4h-2z"/><path d="m25 20h2v4h-2z"/><path d="m21 33h2v4h-2z"/><path d="m21 26h2v4h-2z"/><path d="m25 29h2v4h-2z"/></g><path d="m12 47.275h-2v-11a1.02 1.02 0 0 1 .038-.275l2-7 1.924.55-1.962 6.865z" fill="#394d5c"/><path d="m54 47h-2v-10.86l-1.962-6.865 1.924-.55 2 7a1.02 1.02 0 0 1 .038.275z" fill="#394d5c"/><path d="m61 45c-2.9 0-2.9 2-5.806 2s-2.9-2-5.807-2-2.9 2-5.8 2-2.9-2-5.8-2-2.9 2-5.8 2-2.9-2-5.8-2-2.9 2-5.8 2-2.9-2-5.8-2-2.9 2-5.8 2-2.887-2-5.787-2v16h58z" fill="#50b4f8"/><path d="m14 50h17v2h-17z" fill="#f4f4e6"/><path d="m33 50h16v2h-16z" fill="#f4f4e6"/><path d="m20 54h7v2h-7z" fill="#f4f4e6"/><path d="m29 54h11v2h-11z" fill="#f4f4e6"/><path d="m42 54h4v2h-4z" fill="#f4f4e6"/></g></svg>